<svg width="125" height="6" viewBox="0 0 125 6" fill="none" xmlns="http://www.w3.org/2000/svg">
<circle r="2.5" transform="matrix(-1 0 0 1 122.5 2.8623)" fill="white" fill-opacity="0.4"/>
<circle r="2.5" transform="matrix(-1 0 0 1 82.5 2.8623)" fill="white" fill-opacity="0.6"/>
<circle r="2.5" transform="matrix(-1 0 0 1 32.5 2.8623)" fill="white" fill-opacity="0.85"/>
<circle r="2.5" transform="matrix(-1 0 0 1 102.5 2.8623)" fill="white" fill-opacity="0.5"/>
<circle r="2.5" transform="matrix(-1 0 0 1 62.5 2.8623)" fill="white" fill-opacity="0.7"/>
<circle r="2.5" transform="matrix(-1 0 0 1 12.5 2.8623)" fill="white" fill-opacity="0.95"/>
<circle r="2.5" transform="matrix(-1 0 0 1 112.5 2.8623)" fill="white" fill-opacity="0.45"/>
<circle r="2.5" transform="matrix(-1 0 0 1 72.5 2.8623)" fill="white" fill-opacity="0.65"/>
<circle r="2.5" transform="matrix(-1 0 0 1 22.5 2.8623)" fill="white" fill-opacity="0.9"/>
<circle r="2.5" transform="matrix(-1 0 0 1 92.5 2.8623)" fill="white" fill-opacity="0.55"/>
<circle r="2.5" transform="matrix(-1 0 0 1 42.5 2.8623)" fill="white" fill-opacity="0.8"/>
<circle r="2.5" transform="matrix(-1 0 0 1 52.5 2.8623)" fill="white" fill-opacity="0.75"/>
<circle r="2.5" transform="matrix(-1 0 0 1 2.5 2.8623)" fill="white"/>
</svg>
