<svg width="20" height="29" viewBox="0 0 20 29" fill="none" xmlns="http://www.w3.org/2000/svg">
<path d="M8.73369 24.7387V15.6955C8.73369 15.1941 8.31374 14.7892 7.77379 14.7892H3.19429L11.2534 4.2613V13.2852C11.2534 13.7866 11.6734 14.1915 12.2133 14.1915H16.7928L8.73369 24.7387ZM19.5925 12.4754C19.4325 12.3597 19.2125 12.2826 19.0126 12.2826H13.2932V0.944813C13.2932 0.424202 12.8532 0 12.2933 0H12.2733C11.9733 0 11.6734 0.154253 11.4934 0.385636L0.194619 15.1942C-0.125347 15.6184 -0.0453545 16.2161 0.394597 16.5246C0.574578 16.6403 0.774554 16.7174 0.99453 16.7174H6.7139V28.0552C6.7139 28.5758 7.15386 29 7.71379 29C8.01376 29 8.31374 28.8457 8.49372 28.6144L19.8125 13.8059C20.1324 13.3816 20.0325 12.7839 19.5925 12.4754Z" fill="white"/>
</svg>
