<svg width="181" height="70" viewBox="0 0 181 70" fill="none" xmlns="http://www.w3.org/2000/svg">
<path d="M171.101 47.5057C167.876 47.5057 165.801 49.3579 165.115 51.8275L160.571 51.0043C161.6 46.3224 165.115 43.3726 171.101 43.3726C176.743 43.3726 180.19 46.3224 180.19 51.2101C180.19 55.1889 178.184 57.5899 173.793 60.3511L167.465 64.3471H180.808V68.7375H160.914V64.1927L171.306 57.1097C174.136 55.1889 175.508 53.5425 175.508 51.4159C175.508 49.2893 174.136 47.5057 171.101 47.5057Z" fill="white"/>
<path d="M117.97 0C108.777 0 99.8766 3.61866 91.5245 10.7359C90.0668 11.9879 89.8953 14.1659 91.1301 15.6065C92.3649 17.0643 94.5601 17.2358 96.0007 16.001C103.084 9.96417 110.475 6.91147 117.97 6.91147C133.251 6.91147 145.633 19.2938 145.633 34.5573C145.633 49.8209 133.251 62.2032 117.97 62.2032C100.717 62.2032 90.3069 47.7972 79.2794 32.5336C67.7203 16.5498 55.7667 0 34.9809 0C15.8757 0 0.389221 15.4693 0.389221 34.5573C0.389221 53.6282 15.8757 69.0975 34.9809 69.0975C44.1733 69.0975 53.057 65.496 61.4262 58.3616C62.884 57.1268 63.0555 54.9487 61.8207 53.491C60.5859 52.0504 58.4078 51.8789 56.9501 53.1137C49.8671 59.1333 42.4754 62.2032 34.9809 62.2032C19.7002 62.2032 7.31784 49.8209 7.31784 34.5573C7.31784 19.2938 19.7002 6.91147 34.9809 6.91147C52.2338 6.91147 62.6439 21.3175 73.6713 36.581C85.2305 52.582 97.1841 69.0975 117.97 69.0975C137.058 69.0975 152.562 53.6282 152.562 34.5573C152.562 15.4693 137.075 0 117.97 0Z" fill="white"/>
</svg>
