<svg width="349" height="340" viewBox="0 0 349 340" fill="none" xmlns="http://www.w3.org/2000/svg">
<path d="M70.6395 296.87C99.7221 322.886 138.153 338.713 180.243 338.713C251.763 338.713 312.549 293.111 335.251 229.406" stroke="white" stroke-width="1.14693" stroke-miterlimit="10"/>
<path d="M63.1216 311.065L54.7629 280.499L85.3787 288.561L63.1216 311.065Z" fill="white"/>
<path d="M348.902 238.16L341.384 207.396L318.484 229.258L348.902 238.16Z" fill="white"/>
<path d="M75.2394 47.6396C38.9356 77.8103 15.7883 123.314 15.7883 174.208C15.7883 177.72 15.8872 181.231 16.1345 184.743" stroke="white" stroke-width="1.14693" stroke-miterlimit="10"/>
<path d="M62.281 38.1435L93.7376 34.3351L81.3231 63.4671L62.281 38.1435Z" fill="white"/>
<path d="M0.257721 181.924L19.102 207.396L31.7144 178.313L0.257721 181.924Z" fill="white"/>
<path d="M329.415 104.865C308.642 60.3014 268.48 26.5696 219.811 14.5508" stroke="white" stroke-width="1.14693" stroke-miterlimit="10"/>
<path d="M342.077 94.7754L337.576 126.133L312.648 106.596L342.077 94.7754Z" fill="white"/>
<path d="M227.23 0.158081L197.307 10.5942L221.344 31.2685L227.23 0.158081Z" fill="white"/>
</svg>
