<svg width="155" height="155" viewBox="0 0 155 155" fill="none" xmlns="http://www.w3.org/2000/svg">
<path d="M77.7102 132.195C76.1769 132.245 74.9899 133.481 74.9899 134.965V151.98C74.9899 153.513 76.2264 154.749 77.7597 154.749C79.2929 154.749 80.5294 153.513 80.5294 151.98V134.965C80.5789 133.432 79.3424 132.195 77.8586 132.146H77.7102V132.195ZM118.218 115.428C116.685 115.428 115.448 116.665 115.448 118.149C115.448 118.891 115.745 119.633 116.289 120.127L128.357 132.146C129.396 133.284 131.127 133.333 132.265 132.294C133.402 131.256 133.452 129.525 132.463 128.387C132.413 128.338 132.364 128.288 132.314 128.239L120.246 116.17C119.702 115.725 118.96 115.428 118.218 115.428ZM37.1529 115.428C36.411 115.428 35.768 115.725 35.2734 116.269L23.2546 128.338C22.117 129.327 21.9686 131.058 22.9578 132.195C23.947 133.333 25.6781 133.481 26.8652 132.492C26.9641 132.393 27.063 132.294 27.1619 132.195L39.2302 120.177C40.3183 119.138 40.3678 117.407 39.3291 116.319C38.6861 115.725 37.9442 115.428 37.1529 115.428ZM135.034 74.9206C133.501 74.8712 132.265 76.1077 132.215 77.5915C132.166 79.1247 133.402 80.3612 134.886 80.4107H135.034H152.049C153.582 80.3612 154.769 79.1247 154.72 77.5915C154.67 76.1077 153.483 74.9206 152.049 74.9206H135.034ZM3.42106 74.9206C1.8878 74.8712 0.651297 76.1077 0.601837 77.5915C0.552377 79.1247 1.78888 80.3612 3.27269 80.4107H3.3716H20.4354C21.9686 80.3612 23.1557 79.1247 23.1062 77.5915C23.0567 76.1077 21.8697 74.9206 20.4354 74.9206H3.42106ZM130.237 22.394C129.544 22.394 128.852 22.7402 128.357 23.2348L116.289 35.2536C115.25 36.3417 115.3 38.0728 116.388 39.1609C117.427 40.1996 119.108 40.1996 120.196 39.1609L132.265 27.0927C133.353 26.0045 133.353 24.2734 132.314 23.2348C131.77 22.6413 131.028 22.3445 130.237 22.394ZM25.1341 22.3445C23.6008 22.3445 22.3643 23.581 22.3643 25.1143C22.3643 25.8562 22.6611 26.5981 23.2051 27.0927L35.2239 39.1609C36.3121 40.1996 38.0432 40.1996 39.1313 39.062C40.17 37.9739 40.17 36.2923 39.1313 35.2536L27.063 23.2348C26.6179 22.6413 25.876 22.3445 25.1341 22.3445ZM77.7102 0.582031C76.1769 0.582031 74.9899 1.86799 74.9899 3.40126V20.4155C74.9899 21.9488 76.2264 23.1853 77.7597 23.1853C79.2929 23.1853 80.5294 21.9488 80.5294 20.4155V3.40126C80.5789 1.86799 79.3424 0.631491 77.8586 0.582031H77.7102Z" fill="white"/>
<path d="M75.7317 102.964V79.7676C75.7317 78.4817 74.693 77.443 73.3576 77.443H62.0312L81.9637 50.4378V73.5851C81.9637 74.8711 83.0023 75.9097 84.3377 75.9097H95.6641L75.7317 102.964ZM102.589 71.5078C102.193 71.211 101.649 71.0132 101.154 71.0132H87.0086V41.9306C87.0086 40.5952 85.9205 39.5071 84.5356 39.5071H84.4861C83.7442 39.5071 83.0023 39.9028 82.5572 40.4963L54.6122 78.4817C53.8208 79.5698 54.0187 81.1031 55.1068 81.8944C55.5519 82.1912 56.0465 82.389 56.5906 82.389H70.7362V111.472C70.7362 112.807 71.8243 113.895 73.2092 113.895C73.9511 113.895 74.693 113.499 75.1382 112.906L103.133 74.9205C103.924 73.8324 103.677 72.2992 102.589 71.5078Z" fill="white"/>
</svg>
